<svg xmlns="http://www.w3.org/2000/svg" xmlns:xlink="http://www.w3.org/1999/xlink" version="1.1" width="256" height="256" viewBox="0 0 256 256" xml:space="preserve">

<defs>
</defs>
<g style="stroke: none; stroke-width: 0; stroke-dasharray: none; stroke-linecap: butt; stroke-linejoin: miter; stroke-miterlimit: 10; fill: none; fill-rule: nonzero; opacity: 1;" transform="translate(1.4065934065934016 1.4065934065934016) scale(2.81 2.81)" >
	<path d="M 87.429 30 C 81.254 12.534 64.611 0.015 45.034 0 h -0.068 C 25.389 0.015 8.745 12.534 2.571 30 C 0.911 34.693 0 39.739 0 45 c 0 5.261 0.912 10.308 2.571 15 C 8.75 77.476 25.408 90 45 90 s 36.25 -12.524 42.429 -30 C 89.088 55.307 90 50.261 90 45 C 90 39.739 89.089 34.693 87.429 30 z" style="stroke: none; stroke-width: 1; stroke-dasharray: none; stroke-linecap: butt; stroke-linejoin: miter; stroke-miterlimit: 10; fill: rgb(243,244,245); fill-rule: nonzero; opacity: 1;" transform=" matrix(1 0 0 1 0 0) " stroke-linecap="round" />
	<path d="M 52.2 52.2 h 37.215 C 89.794 49.855 90 47.452 90 45 c 0 -2.452 -0.206 -4.855 -0.585 -7.2 H 52.2 V 0.574 C 49.867 0.198 47.473 0.002 45.034 0 h -0.068 c -2.439 0.002 -4.833 0.198 -7.166 0.574 V 37.8 H 0.585 C 0.206 40.145 0 42.547 0 45 c 0 2.452 0.206 4.855 0.585 7.2 H 37.8 v 37.227 C 40.144 89.804 42.549 90 45 90 s 4.856 -0.196 7.2 -0.573 V 52.2 z" style="stroke: none; stroke-width: 1; stroke-dasharray: none; stroke-linecap: butt; stroke-linejoin: miter; stroke-miterlimit: 10; fill: rgb(206,17,36); fill-rule: nonzero; opacity: 1;" transform=" matrix(1 0 0 1 0 0) " stroke-linecap="round" />
</g>
</svg>